# xmcd
#
# Track frame offsets:
#	150
#	14840
#	30507
#	48220
#	62125
#	76817
#	93440
#	109680
#	125460
#	144510
#	164892
#	182340
#
# Disc length: 2788 seconds
#
# Revision: 1
# Processed by: cddbd v1.5.1PL0 Copyright (c) Steve Scherf et al.
# Submitted via: audiograbber 1.83.01
#
DISCID=9b0ae20c
DTITLE=The Ritchie Family - Greatest Hits
DYEAR=1999
DGENRE=Disco
TTITLE0=the best disco in town
TTITLE1=life is music
TTITLE2=Brazil
TTITLE3=american generation 
TTITLE4=african queen medley
TTITLE5=bad reputation
TTITLE6=put your feet to the beat
TTITLE7=give me a break
TTITLE8=I'll do my best  for you baby
TTITLE9=istambul
TTITLE10=lawrence of arabia
TTITLE11=in a persian market
EXTD=BMG ARIOLA Compilation
EXTT0=
EXTT1=
EXTT2=
EXTT3=
EXTT4=
EXTT5=
EXTT6=
EXTT7=
EXTT8=
EXTT9=
EXTT10=
EXTT11=
PLAYORDER=
